<svg width="168" height="24" viewBox="0 0 168 24" fill="none" xmlns="http://www.w3.org/2000/svg">
<g clip-path="url(#clip0_102_53659)">
<path d="M24 12C24 5.37258 18.6274 0 12 0C5.37258 0 0 5.37258 0 12C0 17.9895 4.3882 22.954 10.125 23.8542V15.4688H7.07812V12H10.125V9.35625C10.125 6.34875 11.9166 4.6875 14.6576 4.6875C15.9701 4.6875 17.3438 4.92188 17.3438 4.92188V7.875H15.8306C14.34 7.875 13.875 8.80008 13.875 9.75V12H17.2031L16.6711 15.4688H13.875V23.8542C19.6118 22.954 24 17.9895 24 12Z" fill="#272D37"/>
<path d="M16.6711 15.4688L17.2031 12H13.875V9.75C13.875 8.80102 14.34 7.875 15.8306 7.875H17.3438V4.92188C17.3438 4.92188 15.9705 4.6875 14.6576 4.6875C11.9166 4.6875 10.125 6.34875 10.125 9.35625V12H7.07812V15.4688H10.125V23.8542C11.3674 24.0486 12.6326 24.0486 13.875 23.8542V15.4688H16.6711Z" fill="white"/>
</g>
<g clip-path="url(#clip1_102_53659)">
<path d="M71.7623 12.2763C71.7623 11.4605 71.6962 10.6404 71.5551 9.83789H60.2363V14.4589H66.7181C66.4491 15.9492 65.5849 17.2676 64.3194 18.1054V21.1037H68.1864C70.4572 19.0137 71.7623 15.9272 71.7623 12.2763Z" fill="#272D37"/>
<path d="M60.2372 24.0003C63.4736 24.0003 66.203 22.9377 68.1916 21.1034L64.3246 18.1051C63.2487 18.837 61.8598 19.2515 60.2416 19.2515C57.111 19.2515 54.4565 17.1394 53.5041 14.2998H49.5137V17.3907C51.5508 21.4429 55.7 24.0003 60.2372 24.0003Z" fill="#272D37"/>
<path d="M53.4989 14.3007C52.9962 12.8103 52.9962 11.1965 53.4989 9.70618V6.61523H49.5128C47.8108 10.006 47.8108 14.0009 49.5128 17.3916L53.4989 14.3007Z" fill="#272D37"/>
<path d="M60.2372 4.74966C61.948 4.7232 63.6015 5.36697 64.8405 6.54867L68.2666 3.12262C66.0972 1.0855 63.2179 -0.034466 60.2372 0.000808666C55.7 0.000808666 51.5508 2.55822 49.5137 6.61481L53.4997 9.70575C54.4477 6.86173 57.1065 4.74966 60.2372 4.74966Z" fill="#272D37"/>
</g>
<path d="M117.685 18.7033C117.322 19.5418 116.892 20.3136 116.394 21.0232C115.716 21.9906 115.16 22.6602 114.732 23.032C114.068 23.6424 113.357 23.955 112.596 23.9728C112.049 23.9728 111.39 23.8172 110.623 23.5017C109.853 23.1876 109.145 23.032 108.498 23.032C107.82 23.032 107.092 23.1876 106.314 23.5017C105.534 23.8172 104.906 23.9816 104.426 23.9979C103.696 24.0291 102.968 23.7076 102.241 23.032C101.778 22.6276 101.198 21.9343 100.503 20.9521C99.7576 19.9033 99.1447 18.687 98.6646 17.3004C98.1503 15.8026 97.8926 14.3523 97.8926 12.9482C97.8926 11.3398 98.2401 9.95259 98.9362 8.79011C99.4833 7.85636 100.211 7.11979 101.122 6.57906C102.033 6.03834 103.017 5.76279 104.077 5.74516C104.657 5.74516 105.418 5.92456 106.363 6.27715C107.305 6.63091 107.911 6.81032 108.176 6.81032C108.374 6.81032 109.047 6.60054 110.186 6.18233C111.264 5.79449 112.174 5.63391 112.919 5.69716C114.938 5.86012 116.455 6.6561 117.464 8.09013C115.658 9.18432 114.765 10.7169 114.782 12.6829C114.799 14.2142 115.354 15.4886 116.446 16.5004C116.941 16.97 117.493 17.333 118.108 17.5907C117.975 17.9774 117.834 18.3477 117.685 18.7033ZM113.054 0.480137C113.054 1.68041 112.615 2.8011 111.741 3.8384C110.686 5.07155 109.41 5.78412 108.027 5.67168C108.009 5.52769 107.999 5.37614 107.999 5.21688C107.999 4.06462 108.501 2.83147 109.391 1.82321C109.836 1.3127 110.402 0.888228 111.088 0.549615C111.772 0.216055 112.42 0.031589 113.028 0C113.046 0.160458 113.054 0.320926 113.054 0.480121V0.480137Z" fill="#272D37"/>
<g clip-path="url(#clip2_102_53659)">
<path d="M160.85 0H151.15C147.207 0 144 3.20735 144 7.14973V16.8503C144 20.7926 147.207 24 151.15 24H160.85C164.793 24 168 20.7926 168 16.8503V7.14973C168 3.20735 164.793 0 160.85 0ZM165.586 16.8503C165.586 19.4655 163.465 21.5856 160.85 21.5856H151.15C148.535 21.5856 146.414 19.4655 146.414 16.8503V7.14973C146.414 4.53446 148.535 2.4144 151.15 2.4144H160.85C163.465 2.4144 165.586 4.53446 165.586 7.14973V16.8503Z" fill="#272D37"/>
<path d="M156 5.79297C152.578 5.79297 149.793 8.57754 149.793 12.0002C149.793 15.4228 152.578 18.2074 156 18.2074C159.423 18.2074 162.207 15.4229 162.207 12.0002C162.207 8.57749 159.423 5.79297 156 5.79297ZM156 15.7931C153.905 15.7931 152.207 14.095 152.207 12.0002C152.207 9.90547 153.906 8.20737 156 8.20737C158.095 8.20737 159.793 9.90547 159.793 12.0002C159.793 14.0949 158.095 15.7931 156 15.7931Z" fill="#272D37"/>
<path d="M162.22 7.32722C163.041 7.32722 163.707 6.66132 163.707 5.83988C163.707 5.01845 163.041 4.35254 162.22 4.35254C161.398 4.35254 160.732 5.01845 160.732 5.83988C160.732 6.66132 161.398 7.32722 162.22 7.32722Z" fill="#272D37"/>
</g>
<defs>
<clipPath id="clip0_102_53659">
<rect width="24" height="24" fill="white"/>
</clipPath>
<clipPath id="clip1_102_53659">
<rect width="24" height="24" fill="white" transform="translate(48)"/>
</clipPath>
<clipPath id="clip2_102_53659">
<rect width="24" height="24" fill="white" transform="translate(144)"/>
</clipPath>
</defs>
</svg>
