<svg width="24" height="26" viewBox="0 0 24 26" fill="none" xmlns="http://www.w3.org/2000/svg">
<path d="M15.8971 7.45073L13.1472 2.6638C12.6366 1.77499 11.3558 1.77073 10.8393 2.65613L7.93753 7.63063C7.55319 8.28951 6.90508 8.75226 6.1571 8.90186L2.19214 9.69485C1.16523 9.90023 0.765089 11.155 1.48351 11.917L4.35128 14.9585C4.96452 15.6089 5.21108 16.5233 5.00796 17.3939L3.70991 22.9569C3.44308 24.1005 4.67788 25.0056 5.6881 24.4069L10.6404 21.4722C11.4786 20.9755 12.5211 20.9755 13.3593 21.4722L18.3116 24.4069C19.3219 25.0056 20.5567 24.1005 20.2898 22.9569L18.9804 17.3451C18.7836 16.5016 19.0087 15.615 19.5842 14.9676L22.4555 11.7373C23.1397 10.9677 22.7302 9.74604 21.7205 9.54409L17.6864 8.73728C16.9324 8.58647 16.2802 8.11751 15.8971 7.45073Z" stroke="#437EF7" stroke-width="2" stroke-miterlimit="10"/>
</svg>
