<svg width="32" height="32" viewBox="0 0 32 32" fill="none" xmlns="http://www.w3.org/2000/svg">
<path d="M16.0007 30.6668C24.1008 30.6668 30.6673 24.1003 30.6673 16.0002C30.6673 7.89999 24.1008 1.3335 16.0007 1.3335M16.0007 30.6668C7.90047 30.6668 1.33398 24.1003 1.33398 16.0002C1.33398 7.89999 7.90047 1.3335 16.0007 1.3335M16.0007 30.6668C18.9462 30.6668 21.334 24.1003 21.334 16.0002C21.334 7.89999 18.9462 1.3335 16.0007 1.3335M16.0007 30.6668C13.0551 30.6668 10.6673 24.1003 10.6673 16.0002C10.6673 7.89999 13.0551 1.3335 16.0007 1.3335M2.66732 10.6668H29.334M2.66732 20.0002H29.334" stroke="#437EF7" stroke-width="2" stroke-linecap="round"/>
</svg>
